Coordinates
version=1
nRows=34
nColumns=38
inDegrees=no

Units are S.I. units (second, meters, Newtons, ...)
If the header above contains a line with 'inDegrees', this indicates whether rotational values are in degrees (yes) or radians (no).

endheader
time	pelvis_tilt	pelvis_list	pelvis_rotation	pelvis_tx	pelvis_ty	pelvis_tz	hip_flexion_r	hip_adduction_r	hip_rotation_r	knee_angle_r	ankle_angle_r	subtalar_angle_r	mtp_angle_r	hip_flexion_l	hip_adduction_l	hip_rotation_l	knee_angle_l	ankle_angle_l	subtalar_angle_l	mtp_angle_l	lumbar_extension	lumbar_bending	lumbar_rotation	arm_flex_r	arm_add_r	arm_rot_r	elbow_flex_r	pro_sup_r	wrist_flex_r	wrist_dev_r	arm_flex_l	arm_add_l	arm_rot_l	elbow_flex_l	pro_sup_l	wrist_flex_l	wrist_dev_l
3.24	2.94011	1.40734	-1.24416	0.735582	0.0306221	0.947509	-0.0655895	0.0291655	-0.303694	0.329616	0.147093	0	0	-0.202956	-0.224509	-0.186078	0.793905	-0.216277	0	0	-0.722673	0.105067	0.0270304	0.0855637	-0.737861	0.565029	1.66917	1.14206	0	0	0.0506031	-0.619037	0.363085	1.66869	1.38014	0	0
3.25	2.95627	1.4058	-1.27174	0.737693	0.0348172	0.948693	-0.0782424	0.0301707	-0.293884	0.316589	0.143015	0	0	-0.199221	-0.219183	-0.192688	0.80253	-0.202845	0	0	-0.724237	0.0958267	0.0331297	0.077938	-0.730953	0.56536	1.66348	1.14887	0	0	0.0395263	-0.6196	0.360211	1.66544	1.3851	0	0
3.26	2.97297	1.40492	-1.29877	0.739654	0.0388528	0.949838	-0.0903529	0.0306008	-0.285586	0.302983	0.138932	0	0	-0.194202	-0.212484	-0.19598	0.810001	-0.186744	0	0	-0.724663	0.0871328	0.0379722	0.0717342	-0.724191	0.567191	1.65705	1.15477	0	0	0.0290015	-0.620048	0.357485	1.66063	1.38986	0	0
3.27	2.98984	1.40465	-1.32495	0.741477	0.0428153	0.950981	-0.102067	0.0307275	-0.278335	0.289079	0.135726	0	0	-0.187851	-0.205654	-0.198442	0.816467	-0.168977	0	0	-0.724062	0.0788346	0.0422221	0.0656517	-0.717541	0.569287	1.64993	1.15967	0	0	0.0196465	-0.62027	0.355998	1.65418	1.39423	0	0
3.28	3.00756	1.40453	-1.351	0.743181	0.0466496	0.952093	-0.113499	0.0303904	-0.272474	0.275346	0.132121	0	0	-0.180694	-0.199249	-0.201337	0.821857	-0.152208	0	0	-0.723005	0.0709014	0.0458432	0.0601512	-0.711363	0.572226	1.64259	1.16343	0	0	0.0113588	-0.620449	0.35506	1.64744	1.3974	0	0
3.29	3.02707	1.40465	-1.37799	0.744735	0.0503975	0.953159	-0.124506	0.0292676	-0.268077	0.261833	0.12814	0	0	-0.172817	-0.192554	-0.20373	0.825537	-0.136444	0	0	-0.721243	0.0633334	0.048396	0.0562386	-0.705609	0.577033	1.63458	1.16628	0	0	0.00312228	-0.620532	0.353747	1.64065	1.40027	0	0
3.3	3.04661	1.40469	-1.40437	0.746193	0.054064	0.954196	-0.135385	0.0279739	-0.263897	0.248591	0.12513	0	0	-0.164813	-0.18566	-0.205231	0.827227	-0.122465	0	0	-0.719135	0.0561857	0.0503854	0.0534652	-0.700248	0.583061	1.62616	1.16847	0	0	-0.00513361	-0.620514	0.352009	1.63391	1.40349	0	0
3.31	3.06545	1.40438	-1.42935	0.747543	0.057699	0.955184	-0.146595	0.0267837	-0.259838	0.23546	0.122581	0	0	-0.156958	-0.178664	-0.206001	0.827429	-0.109112	0	0	-0.716885	0.0495974	0.0521242	0.0509057	-0.695318	0.589556	1.61764	1.17027	0	0	-0.0131026	-0.620496	0.350493	1.62722	1.40635	0	0
3.32	3.08367	1.40366	-1.45316	0.748893	0.0612711	0.956085	-0.158129	0.0257894	-0.256053	0.222223	0.119093	0	0	-0.149248	-0.17165	-0.206025	0.826302	-0.0941545	0	0	-0.714472	0.0433196	0.0535261	0.0489565	-0.69047	0.597017	1.60864	1.17206	0	0	-0.0206657	-0.62125	0.349726	1.62112	1.40837	0	0
3.33	3.10284	1.403	-1.47719	0.75012	0.0647725	0.956894	-0.169421	0.024474	-0.252781	0.209188	0.11533	0	0	-0.141178	-0.165112	-0.2074	0.823898	-0.0779294	0	0	-0.711763	0.037134	0.0548462	0.0462967	-0.685666	0.603694	1.59937	1.17402	0	0	-0.0270023	-0.621986	0.350324	1.61487	1.4103	0	0
3.34	3.12129	1.40159	-1.49998	0.751242	0.0681866	0.957663	-0.181511	0.023308	-0.24899	0.195954	0.111397	0	0	-0.133628	-0.158757	-0.208379	0.820498	-0.0626683	0	0	-0.709371	0.0314587	0.0558924	0.0438511	-0.681169	0.61035	1.5903	1.1762	0	0	-0.0326774	-0.622744	0.351878	1.60791	1.41167	0	0
3.35	3.1373	1.39866	-1.52038	0.752333	0.0715391	0.958458	-0.195471	0.0226718	-0.243752	0.181984	0.107844	0	0	-0.128062	-0.152472	-0.208924	0.81514	-0.0499025	0	0	-0.708386	0.0259222	0.0578055	0.0401982	-0.677146	0.615155	1.58225	1.17834	0	0	-0.0370104	-0.624067	0.355445	1.60111	1.41176	0	0
3.36	-3.1347	1.39222	-1.5353	0.75344	0.0750102	0.959515	-0.215653	0.0239522	-0.235902	0.163205	0.101919	0	0	-0.127615	-0.14751	-0.210321	0.80648	-0.0388055	0	0	-0.710465	0.0213343	0.0601015	0.0355127	-0.673179	0.618478	1.57513	1.18008	0	0	-0.0408057	-0.626168	0.359865	1.59524	1.41101	0	0
3.37	3.06729	1.3572	-1.44793	0.755449	0.0800251	0.963985	-0.277607	0.0552483	-0.234931	0.122316	0.074663	0	0	-0.161228	-0.173994	-0.217802	0.789368	-0.029869	0	0	-0.738589	0.0372982	0.0671999	0.0292533	-0.665213	0.620625	1.56574	1.18134	0	0	-0.0458214	-0.631269	0.362647	1.59197	1.41047	0	0
3.38	-3.10524	1.38833	-1.57147	0.755406	0.0816614	0.960631	-0.237503	0.0206734	-0.23101	0.144984	0.100489	0	0	-0.11548	-0.137482	-0.217384	0.788763	-0.0173603	0	0	-0.704941	0.0108855	0.0641051	0.0233523	-0.663667	0.621434	1.55844	1.18047	0	0	-0.0484685	-0.627441	0.366188	1.58348	1.4041	0	0
3.39	-3.09281	1.38363	-1.58746	0.756492	0.085013	0.961314	-0.25383	0.0202974	-0.22405	0.129971	0.0941186	0	0	-0.113927	-0.133073	-0.223664	0.775573	-0.00478677	0	0	-0.704685	0.00553097	0.0669003	0.0154825	-0.658311	0.619433	1.55116	1.19412	0	0	-0.0529108	-0.627722	0.366674	1.5791	1.4237	0	0
3.4	-3.08166	1.37932	-1.60243	0.757596	0.0883145	0.961867	-0.268444	0.0194545	-0.219666	0.116918	0.0864817	0	0	-0.112355	-0.129733	-0.232536	0.761494	0.0111154	0	0	-0.70367	0.000108819	0.0699322	0.00835058	-0.653576	0.619295	1.54468	1.1973	0	0	-0.057643	-0.627657	0.367276	1.57528	1.42734	0	0
3.41	-3.07224	1.37539	-1.6157	0.758667	0.0915558	0.962306	-0.28242	0.0186518	-0.214397	0.104357	0.0809091	0	0	-0.110909	-0.126923	-0.243104	0.745539	0.0300434	0	0	-0.702174	-0.00512754	0.0731147	0.00137535	-0.649056	0.619185	1.53853	1.20056	0	0	-0.0630747	-0.626934	0.366408	1.57072	1.43198	0	0
3.42	-3.06565	1.37151	-1.62594	0.759659	0.0946983	0.962637	-0.296205	0.0182685	-0.208934	0.092295	0.0781724	0	0	-0.10959	-0.124448	-0.254187	0.728452	0.0489423	0	0	-0.700658	-0.00994088	0.0766804	-0.00585487	-0.644845	0.61862	1.53278	1.20383	0	0	-0.0687075	-0.625611	0.364684	1.56614	1.43731	0	0
3.43	-3.06156	1.36815	-1.63349	0.760585	0.0977815	0.962826	-0.309475	0.0183293	-0.203933	0.0802901	0.0766842	0	0	-0.108267	-0.121871	-0.265042	0.709257	0.0669369	0	0	-0.69861	-0.0142244	0.080466	-0.0133529	-0.640786	0.617698	1.52732	1.20694	0	0	-0.0743769	-0.623796	0.363045	1.56199	1.44267	0	0
3.44	-3.0578	1.36537	-1.64036	0.76142	0.100797	0.962917	-0.322293	0.0184894	-0.19924	0.0677606	0.0742577	0	0	-0.106435	-0.11968	-0.276839	0.688348	0.0822546	0	0	-0.696002	-0.01832	0.084577	-0.0217579	-0.636664	0.615559	1.52181	1.20968	0	0	-0.0796794	-0.621237	0.361447	1.55808	1.4478	0	0
3.45	-3.05237	1.36272	-1.64877	0.762239	0.103732	0.963012	-0.334973	0.0182233	-0.194594	0.0550819	0.0713778	0	0	-0.105264	-0.117766	-0.290935	0.664982	0.0945184	0	0	-0.693145	-0.0222544	0.0875142	-0.0284222	-0.632617	0.615431	1.51584	1.21219	0	0	-0.0867986	-0.618565	0.357683	1.55417	1.4523	0	0
3.46	-3.04772	1.36063	-1.6559	0.762935	0.106624	0.962997	-0.347281	0.0181585	-0.190195	0.0419986	0.0679177	0	0	-0.104314	-0.115237	-0.304778	0.638493	0.10713	0	0	-0.689959	-0.0258982	0.0908739	-0.0363422	-0.628661	0.613966	1.50975	1.21463	0	0	-0.0935112	-0.615939	0.354321	1.55188	1.45637	0	0
3.47	-3.04437	1.35892	-1.66122	0.763505	0.109475	0.96285	-0.359316	0.018397	-0.185902	0.0288217	0.0645238	0	0	-0.103588	-0.111953	-0.318347	0.608968	0.120421	0	0	-0.686227	-0.0288297	0.0938056	-0.0436788	-0.625006	0.613234	1.50341	1.21699	0	0	-0.100693	-0.612888	0.349957	1.55047	1.46009	0	0
3.48	-3.04171	1.35724	-1.66533	0.763951	0.112245	0.962632	-0.371097	0.0187203	-0.182359	0.0161168	0.0612947	0	0	-0.102965	-0.108222	-0.330427	0.578505	0.132241	0	0	-0.682386	-0.0313742	0.0967828	-0.0516676	-0.621635	0.61129	1.49808	1.21947	0	0	-0.107068	-0.609732	0.346095	1.54939	1.46334	0	0
3.49	-3.03953	1.35574	-1.66819	0.76424	0.114887	0.962331	-0.382159	0.019166	-0.179472	0.00435274	0.0586947	0	0	-0.102596	-0.103999	-0.340353	0.54666	0.14373	0	0	-0.678432	-0.0333798	0.0993825	-0.0602292	-0.618721	0.607891	1.49458	1.22171	0	0	-0.112981	-0.6065	0.342334	1.54852	1.46608	0	0
3.5	-3.0381	1.35445	-1.66952	0.764322	0.117413	0.961985	-0.391879	0.019562	-0.17881	0	0.0581449	0	0	-0.102832	-0.0990984	-0.350136	0.511563	0.153399	0	0	-0.674204	-0.0348904	0.101605	-0.0686565	-0.616729	0.604797	1.49218	1.21808	0	0	-0.118312	-0.603318	0.339756	1.54773	1.46145	0	0
3.51	-3.0372	1.35338	-1.66966	0.764232	0.119937	0.961581	-0.401227	0.0201118	-0.178519	0	0.0587416	0	0	-0.103923	-0.0934356	-0.359997	0.47283	0.160052	0	0	-0.66985	-0.035515	0.102652	-0.0770605	-0.614741	0.600564	1.49043	1.21945	0	0	-0.124823	-0.600092	0.336627	1.54637	1.46437	0	0
3.52	-3.03456	1.35011	-1.66987	0.763921	0.121952	0.961372	-0.402277	0.0208787	-0.175995	0	0.0582973	0	0	-0.107883	-0.0856487	-0.366924	0.43049	0.164122	0	0	-0.668653	-0.035435	0.101378	-0.0846497	-0.613049	0.596777	1.48899	1.22129	0	0	-0.131484	-0.597477	0.3338	1.54512	1.47129	0	0
3.53	-3.03373	1.34789	-1.66906	0.763449	0.124171	0.960999	-0.4086	0.0204606	-0.177608	0	0.0589923	0	0	-0.111982	-0.0757343	-0.369655	0.386523	0.163325	0	0	-0.66596	-0.0348904	0.100369	-0.0922424	-0.611387	0.592921	1.48703	1.22354	0	0	-0.138856	-0.594612	0.330121	1.54469	1.47867	0	0
3.54	-3.0283	1.3445	-1.67295	0.762969	0.126329	0.960745	-0.415992	0.0188186	-0.179041	0	0.0613872	0	0	-0.119858	-0.062914	-0.364074	0.340129	0.149456	0	0	-0.664325	-0.0352731	0.0982865	-0.0997793	-0.608668	0.587195	1.48395	1.2427	0	0	-0.146721	-0.591448	0.324061	1.54443	1.50012	0	0
3.55	-3.02642	1.34261	-1.67312	0.762571	0.128401	0.960333	-0.421366	0.0184534	-0.180126	0	0.0628097	0	0	-0.125112	-0.0535131	-0.355707	0.305994	0.121965	0	0	-0.66122	-0.0350754	0.0968158	-0.107006	-0.606101	0.58335	1.4808	1.2477	0	0	-0.15377	-0.589127	0.319978	1.54492	1.50203	0	0
3.56	-3.02912	1.34104	-1.66833	0.762304	0.130429	0.959896	-0.426429	0.0196934	-0.180662	0	0.06397	0	0	-0.126813	-0.050795	-0.352913	0.294345	0.091573	0	0	-0.657514	-0.0338426	0.0948545	-0.111788	-0.604205	0.584329	1.47802	1.23248	0	0	-0.161384	-0.587572	0.316155	1.54578	1.4936	0	0
3.57	-3.02871	1.33647	-1.66648	0.762164	0.132434	0.959826	-0.434665	0.0202096	-0.181469	0	0.0650797	0	0	-0.130509	-0.0508301	-0.353641	0.298587	0.0794181	0	0	-0.65689	-0.0338786	0.0924129	-0.117876	-0.600512	0.580482	1.47542	1.23596	0	0	-0.168719	-0.586734	0.311444	1.54757	1.49721	0	0
